<svg width="225" height="100" viewBox="0 0 225 100" fill="none" xmlns="http://www.w3.org/2000/svg">
<g clip-path="url(#clip0_5_23)">
<path d="M114.5 66.6667H115.917C117.42 66.6667 118.861 67.2813 119.924 68.3752C120.986 69.4692 121.583 70.9529 121.583 72.5C121.583 74.0471 120.986 75.5308 119.924 76.6248C118.861 77.7188 117.42 78.3333 115.917 78.3333H114.5M114.5 66.6667H91.8333V79.7917C91.8333 81.3388 92.4304 82.8225 93.4931 83.9165C94.5558 85.0104 95.9971 85.625 97.5 85.625H108.833C110.336 85.625 111.778 85.0104 112.84 83.9165C113.903 82.8225 114.5 81.3388 114.5 79.7917V66.6667ZM97.5 56.4583V60.8333M103.167 56.4583V60.8333M108.833 56.4583V60.8333" stroke="#4E331B" stroke-width="4" stroke-linecap="round" stroke-linejoin="round"/>
</g>
<path d="M17.664 48.624C15.744 48.624 13.792 47.776 11.808 46.08L11.424 48H4.512L11.04 17.472L18.144 16.512L12.384 43.44C13.28 44.08 14.192 44.4 15.12 44.4C16.944 44.4 18.544 43.344 19.92 41.232C21.328 39.12 22.416 36.432 23.184 33.168C23.952 29.904 24.336 26.608 24.336 23.28C24.336 20.144 23.712 17.856 22.464 16.416C21.248 14.944 19.536 14.208 17.328 14.208C14.928 14.208 12.768 14.688 10.848 15.648C8.96 16.576 7.472 17.92 6.384 19.68C5.296 21.44 4.752 23.504 4.752 25.872C4.752 27.056 4.864 27.888 5.088 28.368C5.312 28.816 5.424 29.072 5.424 29.136C3.76 29.136 2.48 28.784 1.584 28.08C0.72 27.376 0.288 26.24 0.288 24.672C0.288 22.496 1.104 20.432 2.736 18.48C4.368 16.528 6.544 14.96 9.264 13.776C12.016 12.592 14.976 12 18.144 12C22.528 12 25.76 13.296 27.84 15.888C29.92 18.48 30.96 21.792 30.96 25.824C30.96 29.472 30.336 33.072 29.088 36.624C27.872 40.144 26.24 43.024 24.192 45.264C22.144 47.504 19.968 48.624 17.664 48.624ZM38.5961 48.288C36.2601 48.288 34.4361 47.68 33.1241 46.464C31.8121 45.216 31.1561 43.28 31.1561 40.656C31.1561 38.448 31.5881 36.016 32.4521 33.36C33.3161 30.704 34.7241 28.416 36.6761 26.496C38.6281 24.544 41.1081 23.568 44.1161 23.568C47.6361 23.568 49.3961 25.104 49.3961 28.176C49.3961 29.968 48.8841 31.616 47.8601 33.12C46.8361 34.624 45.4761 35.84 43.7801 36.768C42.0841 37.664 40.2761 38.176 38.3561 38.304C38.2921 39.008 38.2601 39.488 38.2601 39.744C38.2601 42.4 39.2521 43.728 41.2361 43.728C42.1321 43.728 43.0921 43.488 44.1161 43.008C45.1401 42.528 46.0681 41.92 46.9001 41.184C46.0361 45.92 43.2681 48.288 38.5961 48.288ZM38.6921 36C39.9081 35.968 41.0441 35.568 42.1001 34.8C43.1881 34.032 44.0521 33.056 44.6921 31.872C45.3641 30.656 45.7001 29.392 45.7001 28.08C45.7001 26.768 45.3001 26.112 44.5001 26.112C43.3801 26.112 42.2601 27.136 41.1401 29.184C40.0521 31.2 39.2361 33.472 38.6921 36ZM70.9005 57.936C68.5645 57.936 66.6765 57.328 65.2365 56.112C63.8285 54.928 63.1245 53.36 63.1245 51.408C63.1245 50.192 63.4125 49.072 63.9885 48.048C64.5645 47.024 65.3485 46.224 66.3405 45.648C67.3325 45.04 68.4205 44.736 69.6045 44.736C70.8205 44.736 71.7965 45.04 72.5325 45.648C73.3005 46.256 73.6845 47.056 73.6845 48.048C73.6845 48.816 73.5085 49.424 73.1565 49.872C72.8685 49.488 72.4685 49.184 71.9565 48.96C71.4765 48.736 70.9645 48.624 70.4205 48.624C69.4605 48.624 68.6765 48.944 68.0685 49.584C67.4605 50.224 67.1565 51.056 67.1565 52.08C67.1565 53.104 67.4445 53.936 68.0205 54.576C68.6285 55.216 69.3805 55.536 70.2765 55.536C71.3965 55.536 72.3565 55.04 73.1565 54.048C73.9565 53.056 74.5645 51.584 74.9805 49.632L77.3805 39.024H77.1885C76.3245 40.24 75.2685 41.168 74.0205 41.808C72.8045 42.448 71.4605 42.768 69.9885 42.768C68.1325 42.768 66.5005 42.272 65.0925 41.28C63.6845 40.288 62.5965 38.88 61.8285 37.056C61.0925 35.2 60.7245 33.056 60.7245 30.624C60.7245 27.104 61.4925 23.904 63.0285 21.024C64.5645 18.112 66.6765 15.824 69.3645 14.16C72.0525 12.496 75.0125 11.664 78.2445 11.664C80.9645 11.664 83.1085 12.256 84.6765 13.44C86.2765 14.624 87.0765 16.24 87.0765 18.288C87.0765 19.664 86.7405 20.768 86.0685 21.6C85.3965 22.432 84.5165 22.848 83.4285 22.848C82.8205 22.848 82.2445 22.72 81.7005 22.464C81.1885 22.208 80.7565 21.84 80.4045 21.36C80.9805 20.976 81.4605 20.368 81.8445 19.536C82.2605 18.672 82.4685 17.808 82.4685 16.944C82.4685 15.984 82.1805 15.248 81.6045 14.736C81.0605 14.192 80.2765 13.92 79.2525 13.92C77.3965 13.92 75.6045 14.752 73.8765 16.416C72.1485 18.048 70.7565 20.192 69.7005 22.848C68.6445 25.504 68.1165 28.288 68.1165 31.2C68.1165 33.6 68.5005 35.44 69.2685 36.72C70.0365 37.968 71.1405 38.592 72.5805 38.592C74.3085 38.592 75.8285 37.68 77.1405 35.856C78.4845 34.032 79.5565 31.376 80.3565 27.888L86.0205 27.936L82.5165 44.064C81.4925 48.832 80.0365 52.336 78.1485 54.576C76.2925 56.816 73.8765 57.936 70.9005 57.936ZM90.8265 24H97.7385L97.1145 26.976C98.2025 26.016 99.1785 25.28 100.043 24.768C100.939 24.256 101.899 24 102.923 24C103.947 24 104.747 24.352 105.323 25.056C105.931 25.76 106.235 26.608 106.235 27.6C106.235 28.528 105.931 29.344 105.323 30.048C104.715 30.752 103.867 31.104 102.779 31.104C102.075 31.104 101.595 30.944 101.339 30.624C101.115 30.272 100.939 29.776 100.811 29.136C100.715 28.72 100.619 28.416 100.523 28.224C100.427 28.032 100.251 27.936 99.9945 27.936C99.3225 27.936 98.7465 28.08 98.2665 28.368C97.8185 28.624 97.2265 29.088 96.4905 29.76L92.6505 48H85.7385L90.8265 24ZM122.937 20.688C122.201 20.688 121.513 20.608 120.873 20.448C120.233 20.288 119.465 20.048 118.569 19.728C117.641 19.44 116.937 19.232 116.457 19.104C115.977 18.976 115.449 18.912 114.873 18.912C113.689 18.912 112.633 19.328 111.705 20.16L111.465 20.064C112.201 18.528 113.257 17.36 114.633 16.56C116.009 15.76 117.625 15.36 119.481 15.36C120.281 15.36 121.001 15.44 121.641 15.6C122.313 15.728 123.049 15.936 123.849 16.224C124.585 16.48 125.209 16.672 125.721 16.8C126.233 16.896 126.793 16.944 127.401 16.944C128.617 16.944 129.625 16.576 130.425 15.84L130.665 15.888C130.537 16.624 130.073 17.376 129.273 18.144C128.505 18.88 127.545 19.488 126.393 19.968C125.273 20.448 124.121 20.688 122.937 20.688ZM111.369 48.288C109.545 48.288 108.025 47.664 106.809 46.416C105.593 45.168 104.985 43.216 104.985 40.56C104.985 38.192 105.449 35.712 106.377 33.12C107.337 30.496 108.745 28.288 110.601 26.496C112.489 24.672 114.729 23.76 117.321 23.76C118.633 23.76 119.609 23.984 120.249 24.432C120.889 24.88 121.209 25.472 121.209 26.208V26.544L121.737 24H128.649L125.193 40.32C125.065 40.8 125.001 41.312 125.001 41.856C125.001 43.232 125.657 43.92 126.969 43.92C127.865 43.92 128.633 43.504 129.273 42.672C129.945 41.84 130.473 40.752 130.857 39.408H132.873C131.689 42.864 130.217 45.216 128.457 46.464C126.729 47.68 124.985 48.288 123.225 48.288C121.881 48.288 120.793 47.92 119.961 47.184C119.161 46.416 118.681 45.312 118.521 43.872C117.593 45.184 116.553 46.256 115.401 47.088C114.281 47.888 112.937 48.288 111.369 48.288ZM114.489 43.632C115.289 43.632 116.073 43.264 116.841 42.528C117.641 41.76 118.185 40.72 118.473 39.408L120.777 28.56C120.777 28.144 120.617 27.744 120.297 27.36C119.977 26.944 119.481 26.736 118.809 26.736C117.529 26.736 116.377 27.488 115.353 28.992C114.329 30.464 113.529 32.256 112.953 34.368C112.377 36.448 112.089 38.288 112.089 39.888C112.089 41.488 112.313 42.512 112.761 42.96C113.241 43.408 113.817 43.632 114.489 43.632ZM137.883 48.192C135.515 48.192 133.643 47.584 132.267 46.368C130.891 45.152 130.203 43.232 130.203 40.608C130.203 38.4 130.635 35.984 131.499 33.36C132.363 30.704 133.771 28.416 135.723 26.496C137.675 24.544 140.171 23.568 143.211 23.568C146.987 23.568 149.019 25.728 149.307 30.048C150.011 29.888 150.635 29.504 151.179 28.896C151.723 28.256 152.235 27.536 152.715 26.736H154.251C153.387 28.464 152.619 29.824 151.947 30.816C151.275 31.776 150.395 32.56 149.307 33.168C149.115 36.176 148.491 38.816 147.435 41.088C146.411 43.36 145.067 45.12 143.403 46.368C141.739 47.584 139.899 48.192 137.883 48.192ZM139.803 43.872C140.987 43.872 142.091 42.912 143.115 40.992C144.139 39.072 144.843 36.704 145.227 33.888C144.459 33.6 144.075 32.88 144.075 31.728C144.075 30.48 144.523 29.648 145.419 29.232C145.355 28.208 145.179 27.504 144.891 27.12C144.635 26.704 144.203 26.496 143.595 26.496C142.539 26.496 141.531 27.264 140.571 28.8C139.611 30.304 138.827 32.144 138.219 34.32C137.643 36.464 137.355 38.352 137.355 39.984C137.355 41.52 137.531 42.56 137.883 43.104C138.235 43.616 138.875 43.872 139.803 43.872Z" fill="#4E331B"/>
<path d="M141.088 97.936C138.752 97.936 136.864 97.328 135.424 96.112C134.016 94.928 133.312 93.36 133.312 91.408C133.312 90.192 133.6 89.072 134.176 88.048C134.752 87.024 135.536 86.224 136.528 85.648C137.52 85.04 138.608 84.736 139.792 84.736C141.008 84.736 141.984 85.04 142.72 85.648C143.488 86.256 143.872 87.056 143.872 88.048C143.872 88.816 143.696 89.424 143.344 89.872C143.056 89.488 142.656 89.184 142.144 88.96C141.664 88.736 141.152 88.624 140.608 88.624C139.648 88.624 138.864 88.944 138.256 89.584C137.648 90.224 137.344 91.056 137.344 92.08C137.344 93.104 137.632 93.936 138.208 94.576C138.816 95.216 139.568 95.536 140.464 95.536C141.584 95.536 142.544 95.04 143.344 94.048C144.144 93.056 144.752 91.584 145.168 89.632L147.568 79.024H147.376C146.512 80.24 145.456 81.168 144.208 81.808C142.992 82.448 141.648 82.768 140.176 82.768C138.32 82.768 136.688 82.272 135.28 81.28C133.872 80.288 132.784 78.88 132.016 77.056C131.28 75.2 130.912 73.056 130.912 70.624C130.912 67.104 131.68 63.904 133.216 61.024C134.752 58.112 136.864 55.824 139.552 54.16C142.24 52.496 145.2 51.664 148.432 51.664C151.152 51.664 153.296 52.256 154.864 53.44C156.464 54.624 157.264 56.24 157.264 58.288C157.264 59.664 156.928 60.768 156.256 61.6C155.584 62.432 154.704 62.848 153.616 62.848C153.008 62.848 152.432 62.72 151.888 62.464C151.376 62.208 150.944 61.84 150.592 61.36C151.168 60.976 151.648 60.368 152.032 59.536C152.448 58.672 152.656 57.808 152.656 56.944C152.656 55.984 152.368 55.248 151.792 54.736C151.248 54.192 150.464 53.92 149.44 53.92C147.584 53.92 145.792 54.752 144.064 56.416C142.336 58.048 140.944 60.192 139.888 62.848C138.832 65.504 138.304 68.288 138.304 71.2C138.304 73.6 138.688 75.44 139.456 76.72C140.224 77.968 141.328 78.592 142.768 78.592C144.496 78.592 146.016 77.68 147.328 75.856C148.672 74.032 149.744 71.376 150.544 67.888L156.208 67.936L152.704 84.064C151.68 88.832 150.224 92.336 148.336 94.576C146.48 96.816 144.064 97.936 141.088 97.936ZM161.014 64H167.926L167.302 66.976C168.39 66.016 169.366 65.28 170.23 64.768C171.126 64.256 172.086 64 173.11 64C174.134 64 174.934 64.352 175.51 65.056C176.118 65.76 176.422 66.608 176.422 67.6C176.422 68.528 176.118 69.344 175.51 70.048C174.902 70.752 174.054 71.104 172.966 71.104C172.262 71.104 171.782 70.944 171.526 70.624C171.302 70.272 171.126 69.776 170.998 69.136C170.902 68.72 170.806 68.416 170.71 68.224C170.614 68.032 170.438 67.936 170.182 67.936C169.51 67.936 168.934 68.08 168.454 68.368C168.006 68.624 167.414 69.088 166.678 69.76L162.838 88H155.926L161.014 64ZM193.125 60.688C192.389 60.688 191.701 60.608 191.061 60.448C190.421 60.288 189.653 60.048 188.757 59.728C187.829 59.44 187.125 59.232 186.645 59.104C186.165 58.976 185.637 58.912 185.061 58.912C183.877 58.912 182.821 59.328 181.893 60.16L181.653 60.064C182.389 58.528 183.445 57.36 184.821 56.56C186.197 55.76 187.813 55.36 189.669 55.36C190.469 55.36 191.189 55.44 191.829 55.6C192.501 55.728 193.237 55.936 194.037 56.224C194.773 56.48 195.397 56.672 195.909 56.8C196.421 56.896 196.981 56.944 197.589 56.944C198.805 56.944 199.813 56.576 200.613 55.84L200.853 55.888C200.725 56.624 200.261 57.376 199.461 58.144C198.693 58.88 197.733 59.488 196.581 59.968C195.461 60.448 194.309 60.688 193.125 60.688ZM181.557 88.288C179.733 88.288 178.213 87.664 176.997 86.416C175.781 85.168 175.173 83.216 175.173 80.56C175.173 78.192 175.637 75.712 176.565 73.12C177.525 70.496 178.933 68.288 180.789 66.496C182.677 64.672 184.917 63.76 187.509 63.76C188.821 63.76 189.797 63.984 190.437 64.432C191.077 64.88 191.397 65.472 191.397 66.208V66.544L191.925 64H198.837L195.381 80.32C195.253 80.8 195.189 81.312 195.189 81.856C195.189 83.232 195.845 83.92 197.157 83.92C198.053 83.92 198.821 83.504 199.461 82.672C200.133 81.84 200.661 80.752 201.045 79.408H203.061C201.877 82.864 200.405 85.216 198.645 86.464C196.917 87.68 195.173 88.288 193.413 88.288C192.069 88.288 190.981 87.92 190.149 87.184C189.349 86.416 188.869 85.312 188.709 83.872C187.781 85.184 186.741 86.256 185.589 87.088C184.469 87.888 183.125 88.288 181.557 88.288ZM184.677 83.632C185.477 83.632 186.261 83.264 187.029 82.528C187.829 81.76 188.373 80.72 188.661 79.408L190.965 68.56C190.965 68.144 190.805 67.744 190.485 67.36C190.165 66.944 189.669 66.736 188.997 66.736C187.717 66.736 186.565 67.488 185.541 68.992C184.517 70.464 183.717 72.256 183.141 74.368C182.565 76.448 182.277 78.288 182.277 79.888C182.277 81.488 182.501 82.512 182.949 82.96C183.429 83.408 184.005 83.632 184.677 83.632ZM208.071 88.192C205.703 88.192 203.831 87.584 202.455 86.368C201.079 85.152 200.39 83.232 200.39 80.608C200.39 78.4 200.822 75.984 201.687 73.36C202.551 70.704 203.959 68.416 205.911 66.496C207.863 64.544 210.359 63.568 213.398 63.568C217.175 63.568 219.207 65.728 219.495 70.048C220.199 69.888 220.823 69.504 221.367 68.896C221.911 68.256 222.423 67.536 222.903 66.736H224.439C223.575 68.464 222.807 69.824 222.135 70.816C221.463 71.776 220.583 72.56 219.495 73.168C219.303 76.176 218.679 78.816 217.623 81.088C216.599 83.36 215.255 85.12 213.591 86.368C211.927 87.584 210.087 88.192 208.071 88.192ZM209.991 83.872C211.175 83.872 212.279 82.912 213.303 80.992C214.327 79.072 215.031 76.704 215.415 73.888C214.647 73.6 214.263 72.88 214.263 71.728C214.263 70.48 214.711 69.648 215.607 69.232C215.543 68.208 215.367 67.504 215.079 67.12C214.823 66.704 214.391 66.496 213.783 66.496C212.727 66.496 211.719 67.264 210.759 68.8C209.799 70.304 209.015 72.144 208.407 74.32C207.831 76.464 207.543 78.352 207.543 79.984C207.543 81.52 207.719 82.56 208.071 83.104C208.423 83.616 209.063 83.872 209.991 83.872Z" fill="#4E331B"/>
<path d="M159.576 52.192C157.997 52.192 156.771 51.7867 155.896 50.976C155.021 50.144 154.584 48.8533 154.584 47.104C154.584 45.632 154.872 44.0107 155.448 42.24C156.024 40.4693 156.963 38.944 158.264 37.664C159.565 36.3627 161.219 35.712 163.224 35.712C165.571 35.712 166.744 36.736 166.744 38.784C166.744 39.9787 166.403 41.0773 165.72 42.08C165.037 43.0827 164.131 43.8933 163 44.512C161.869 45.1093 160.664 45.4507 159.384 45.536C159.341 46.176 159.32 46.6027 159.32 46.816C159.32 47.8613 159.501 48.576 159.864 48.96C160.227 49.3227 160.813 49.504 161.624 49.504C162.776 49.504 163.757 49.2373 164.568 48.704C165.4 48.1707 166.307 47.36 167.288 46.272H168.376C166.008 50.2187 163.075 52.192 159.576 52.192ZM159.64 44C160.429 43.9573 161.176 43.68 161.88 43.168C162.605 42.656 163.181 42.0053 163.608 41.216C164.056 40.4267 164.28 39.5947 164.28 38.72C164.28 37.8453 164.013 37.408 163.48 37.408C162.712 37.408 161.955 38.08 161.208 39.424C160.483 40.768 159.96 42.2933 159.64 44ZM186.193 52.192C185.063 52.192 184.241 51.8507 183.729 51.168C183.217 50.4853 182.961 49.6213 182.961 48.576C182.961 48.128 183.015 47.6267 183.121 47.072C183.228 46.496 183.335 45.9413 183.441 45.408C183.569 44.8747 183.655 44.5333 183.697 44.384C183.868 43.6373 184.028 42.9013 184.177 42.176C184.327 41.4507 184.401 40.864 184.401 40.416C184.401 39.328 184.017 38.784 183.249 38.784C182.695 38.784 182.204 39.0613 181.777 39.616C181.351 40.1493 181.009 40.8533 180.753 41.728L178.577 52H173.969L176.305 40.96C176.369 40.704 176.401 40.4373 176.401 40.16C176.401 39.2213 176.081 38.752 175.441 38.752C174.844 38.752 174.321 39.0293 173.873 39.584C173.447 40.1173 173.105 40.832 172.849 41.728L170.673 52H166.065L169.457 36H174.065L173.713 37.664C174.801 36.448 176.103 35.84 177.617 35.84C179.495 35.84 180.593 36.7573 180.913 38.592C182.087 36.7787 183.569 35.872 185.361 35.872C186.449 35.872 187.313 36.1707 187.953 36.768C188.593 37.3653 188.913 38.272 188.913 39.488C188.913 40.1067 188.839 40.8 188.689 41.568C188.54 42.3147 188.327 43.232 188.049 44.32C187.879 44.9813 187.719 45.632 187.569 46.272C187.441 46.8907 187.377 47.3813 187.377 47.744C187.377 48.1707 187.473 48.5013 187.665 48.736C187.857 48.9707 188.188 49.088 188.657 49.088C189.169 49.088 189.521 49.024 189.713 48.896C189.585 49.984 189.191 50.8053 188.529 51.36C187.889 51.9147 187.111 52.192 186.193 52.192Z" fill="#4E331B"/>
<defs>
<clipPath id="clip0_5_23">
<rect width="34" height="35" fill="white" transform="translate(89 55)"/>
</clipPath>
</defs>
</svg>
